<?xml version="1.0" encoding="utf-8"?>
<!-- Generator: Adobe Illustrator 19.2.1, SVG Export Plug-In . SVG Version: 6.00 Build 0)  -->
<svg version="1.1" id="layer" xmlns="http://www.w3.org/2000/svg" xmlns:xlink="http://www.w3.org/1999/xlink" x="0px" y="0px"
	 viewBox="0 0 652 652" style="enable-background:new 0 0 652 652;" xml:space="preserve">
<style type="text/css">
	.st0{fill:#231815;}
	.st1{fill:#E50012;}
	.st2{fill:#717071;}
	.st3{fill:#FFFFFF;}
</style>
<rect x="20.6" y="351.8" class="st0" width="598.7" height="44.5"/>
<path class="st1" d="M32.3,337.1c-7.6,0-11.7-5.6-11.7-17.7v-51.6c0-12.1,4.1-17.6,11.7-17.6h34.1l1.5,13.2c-2.8-1.7-6.5-2-9.1-2
	H41.1c-2.5,0-3.3,1.2-3.3,5.1v54.3c0,3.9,0.9,5.1,3.3,5.1h17.7c2.6,0,6.3-0.2,9.1-2l-1.5,13.2H32.3z"/>
<path class="st1" d="M84.6,312.4l-3.8,13c-0.9,3.2-1.5,7.2-1.5,11.7H68c2.2-4.5,3.9-9.1,6.3-16.7l19.6-64.5l-2.5-5.7h19.2l21.6,70.4
	c2.5,8.1,4.2,13.7,6.3,16.5h-21.7c0.1-0.6,0.2-1.2,0.2-2c0-2.7-0.7-6.5-2.5-12.4l-3.1-10.3H84.6z M107.9,301.2l-10-32.9l-9.8,32.9
	H107.9z"/>
<path class="st1" d="M181,313.3l17.1-63.1h22c-0.9,4.1-1.1,7.7-1.1,11.7v63.5c0,3.9,0.2,7.6,1.1,11.7h-18.9
	c0.9-4.1,1.1-7.8,1.1-11.7v-62.7H202l-20.1,74.4H170l-19.7-74.4h-0.2v62.7c0,3.9,0.2,7.6,1.2,11.7h-10.1c0.9-4.1,1.1-7.8,1.1-11.7
	v-63.5c0-4-0.2-7.6-1.1-11.7h23.1L181,313.3z"/>
<path class="st2" d="M228.5,261.9c0-4-0.2-7.6-1.1-11.7h46.5c7.4,0,11.6,5.4,11.6,16.8v12.3c0,9.8-2.7,12.5-13,13.2v0.4
	c10.3,0.7,13,3.4,13,13.2v14.1c0,11.4-4.3,16.8-11.6,16.8h-46.5c0.9-4.1,1.1-7.8,1.1-11.7V261.9z M245.7,287.7h20.1
	c2.2,0,3-1.5,3-5.9v-14.6c0-4.3-0.8-5.8-3-5.8h-20.1V287.7z M245.7,325.9h20.1c2.2,0,3-1.5,3-5.8v-15.5c0-4.3-0.8-5.8-3-5.8h-20.1
	V325.9z"/>
<path class="st2" d="M313.1,250.2c-0.9,4.1-1.1,7.7-1.1,11.7v60.4c0,2.4,0.8,3.6,2.7,3.6h26.6c1.8,0,2.7-1.2,2.7-3.6v-60.4
	c0-4-0.2-7.6-1.1-11.7H353c-0.9,4.1-1.1,7.7-1.1,11.7v60.2c0,8.4-4.7,15-10.7,15h-35.7c-5.9,0-10.7-6.5-10.7-15v-60.2
	c0-4-0.2-7.6-1.1-11.7H313.1z"/>
<path class="st2" d="M381.4,250.2c-0.9,4.1-1.1,7.7-1.1,11.7v63.5c0,3.9,0.2,7.6,1.1,11.7H362c0.9-4.1,1.1-7.8,1.1-11.7v-63.5
	c0-4-0.2-7.6-1.1-11.7H381.4z"/>
<path class="st2" d="M409.1,250.2c-0.9,4.1-1.1,7.7-1.1,11.7v64h22.2c2.5,0,6.3-0.2,9.1-2l-1.4,13.2h-48.2c0.9-4.1,1.1-7.8,1.1-11.7
	v-63.5c0-4-0.2-7.6-1.1-11.7H409.1z"/>
<path class="st2" d="M445.5,261.9c0-4-0.1-7.6-1.1-11.7h47.5c7.6,0,11.8,5.6,11.8,17.6v51.6c0,12.1-4.1,17.7-11.8,17.7h-47.5
	c0.9-4.1,1.1-7.8,1.1-11.7V261.9z M462.8,325.9h20.4c2.5,0,3.3-1.2,3.3-5.1v-54.3c0-3.9-0.8-5.1-3.3-5.1h-20.4V325.9z"/>
<polygon class="st0" points="515.5,280.1 519.5,268.1 512.7,268.1 512.7,250.2 530,250.2 530,267.3 522.3,280.1 "/>
<g>
	<path class="st0" d="M570,249.8v87.3h-18.1v-46.8c0-6.8-0.1-10.8-0.4-12.2c-0.3-1.4-1-2.4-2.2-3.1c-1.2-0.7-3.9-1.1-8.1-1.1h-1.8
		v-10.2c8.8-2.3,15.4-6.9,20-14H570z"/>
	<path class="st0" d="M577,313.9h18.1c0,4.1,0,6.6,0.1,7.7s0.5,1.9,1.1,2.7c0.6,0.7,1.5,1.1,2.6,1.1c0.9,0,1.7-0.3,2.3-1
		c0.6-0.7,0.9-1.6,1-2.6c0.1-1.1,0.1-3.3,0.1-6.5v-13.9c-0.9,2.3-2.2,4.1-4,5.3s-4,1.8-6.7,1.8c-3.3,0-6.3-1.1-8.8-3.2
		c-2.5-2.2-4.2-4.7-4.8-7.8c-0.7-3-1-7.1-1-12.2v-7c0-6.1,0.2-10.7,0.6-13.6c0.4-3,1.4-5.7,3.1-8.3c1.7-2.5,4-4.5,7-5.9
		c3-1.4,6.4-2.1,10.3-2.1c4.8,0,8.8,0.8,11.9,2.4c3.1,1.6,5.5,3.9,7.2,7c1.7,3,2.7,6.2,3,9.6c0.3,3.3,0.4,9.8,0.4,19.4v12.1
		c0,10.4-0.1,17.3-0.4,20.8c-0.2,3.5-1.3,6.8-3.1,10c-1.8,3.1-4.3,5.5-7.5,7c-3.1,1.6-6.8,2.3-10.9,2.3c-5.1,0-9.3-1-12.5-3
		c-3.2-2-5.6-4.8-7-8.4C577.7,323.9,577,319.4,577,313.9z M595.2,286.7c0,3.7,0.4,5.9,1.2,6.8c0.8,0.9,1.6,1.3,2.4,1.3
		c1.3,0,2.2-0.5,2.8-1.6c0.6-1.1,0.9-3.2,0.9-6.4v-15.8c0-3.8-0.3-6.4-0.8-7.6c-0.6-1.2-1.5-1.8-2.8-1.8c-0.8,0-1.6,0.5-2.4,1.4
		c-0.8,0.9-1.3,3.4-1.3,7.4V286.7z"/>
</g>
<g>
	<path class="st3" d="M36.3,386.3c-0.4,0.5-1.4,1.1-2.7,1.1c-3.6,0-5.5-5.4-5.5-12.6c0-8.6,2.6-13.3,5.7-13.3c1.2,0,2.2,0.6,2.6,1.1
		l-0.5,4.5c-0.5-0.5-1.1-0.9-2-0.9c-1.9,0-3.3,2.7-3.3,8.3c0,5,1.2,8.2,3.4,8.2c0.7,0,1.5-0.3,2-0.8L36.3,386.3z"/>
	<path class="st3" d="M40.5,380.6l-0.7,6.4h-2.4l3.2-25.1h3.1l3.3,25.1h-2.6l-0.8-6.4H40.5z M43.2,376.3l-0.7-5.3
		c-0.2-1.5-0.4-3.3-0.5-4.8h0c-0.2,1.5-0.3,3.4-0.5,4.8l-0.6,5.3H43.2z"/>
	<path class="st3" d="M57.2,377.4c0-3-0.1-6.7-0.1-10.3h0c-0.3,3.2-0.8,6.8-1.2,9.7l-1.3,9.8h-1.9l-1.1-9.7c-0.3-3-0.7-6.5-1-9.8h0
		c0,3.4-0.1,7.3-0.2,10.4l-0.2,9.5h-2.2l0.7-25.1h3.2l1,8.4c0.3,2.9,0.7,6,0.9,9h0.1c0.3-2.9,0.6-6.2,1-9l1.1-8.3h3.1l0.6,25.1h-2.3
		L57.2,377.4z"/>
	<path class="st3" d="M61.5,362.3c0.6-0.3,1.9-0.5,3.1-0.5c1.5,0,2.3,0.3,3.1,1.4c0.7,0.9,1.2,2.6,1.2,4.9c0,2.2-0.5,4.2-1.7,5.3
		v0.1c1.2,0.7,2.1,2.9,2.1,6.1c0,2.3-0.4,4.1-1.1,5.4c-0.8,1.5-2,2.3-4.1,2.3c-1.2,0-2-0.2-2.6-0.4V362.3z M63.9,371.9h0.8
		c1.3,0,1.9-1.2,1.9-3.1c0-1.9-0.6-2.9-1.7-2.9c-0.5,0-0.8,0.1-1,0.2V371.9z M63.9,383c0.2,0.1,0.5,0.1,0.9,0.1c1.1,0,2-1,2-3.6
		c0-2.5-1-3.5-2.1-3.5h-0.8V383z"/>
	<path class="st3" d="M80.5,374.2c0,8.3-2.1,13.2-5.2,13.2c-3.1,0-4.9-5.6-4.9-12.8c0-7.5,2-13.1,5.1-13.1
		C78.8,361.5,80.5,367.3,80.5,374.2z M73,374.5c0,4.9,1,8.4,2.6,8.4c1.6,0,2.5-3.6,2.5-8.5c0-4.5-0.9-8.4-2.5-8.4
		C73.9,366,73,369.6,73,374.5z"/>
	<path class="st3" d="M82.1,362.3c0.9-0.3,2-0.6,3.2-0.6c2,0,3.3,0.9,4.3,2.7c1.1,1.9,1.8,5,1.8,9.4c0,4.8-0.7,8.1-1.7,10.2
		c-1.1,2.2-2.8,3.2-4.9,3.2c-1.2,0-2.1-0.2-2.7-0.4V362.3z M84.5,382.7c0.2,0.1,0.5,0.1,0.8,0.1c2.2,0,3.6-2.8,3.6-8.8
		c0-5.2-1.3-8-3.3-8c-0.5,0-0.9,0.1-1.1,0.2V382.7z"/>
	<path class="st3" d="M95.4,361.9V387H93v-25.1H95.4z"/>
	<path class="st3" d="M99.9,380.6l-0.7,6.4h-2.4l3.2-25.1h3.1l3.3,25.1h-2.6l-0.8-6.4H99.9z M102.5,376.3l-0.7-5.3
		c-0.2-1.5-0.4-3.3-0.5-4.8h0c-0.2,1.5-0.3,3.4-0.5,4.8l-0.6,5.3H102.5z"/>
	<path class="st3" d="M110.8,362.3c0.6-0.3,1.9-0.5,3.1-0.5c1.5,0,2.3,0.3,3.1,1.4c0.7,0.9,1.2,2.6,1.2,4.9c0,2.2-0.5,4.2-1.7,5.3
		v0.1c1.2,0.7,2.1,2.9,2.1,6.1c0,2.3-0.4,4.1-1.1,5.4c-0.8,1.5-2,2.3-4.1,2.3c-1.2,0-2-0.2-2.6-0.4V362.3z M113.2,371.9h0.8
		c1.3,0,1.9-1.2,1.9-3.1c0-1.9-0.6-2.9-1.7-2.9c-0.5,0-0.8,0.1-1,0.2V371.9z M113.2,383c0.2,0.1,0.5,0.1,0.9,0.1c1.1,0,2-1,2-3.6
		c0-2.5-1-3.5-2.1-3.5h-0.8V383z"/>
	<path class="st3" d="M122.6,361.9V387h-2.4v-25.1H122.6z"/>
	<path class="st3" d="M133.4,385.9c-0.7,0.6-2.1,1.4-3.5,1.4c-1.9,0-3.3-1.2-4.3-3.3c-1-2.2-1.5-5.5-1.5-9.1c0-8.3,2.6-13.1,6-13.1
		c1.4,0,2.4,0.6,2.9,1.2l-0.5,4.6c-0.6-0.6-1.3-1.1-2.4-1.1c-2,0-3.5,2.6-3.5,8.1c0,5.2,1.4,8.2,3.3,8.2c0.5,0,1-0.2,1.2-0.3v-5.3
		h-1.6v-4.4h3.9V385.9z"/>
	<path class="st3" d="M144.1,385.9c-0.7,0.6-2.1,1.4-3.5,1.4c-1.9,0-3.3-1.2-4.3-3.3c-1-2.2-1.5-5.5-1.5-9.1c0-8.3,2.6-13.1,6-13.1
		c1.4,0,2.4,0.6,2.9,1.2l-0.5,4.6c-0.6-0.6-1.3-1.1-2.4-1.1c-2,0-3.5,2.6-3.5,8.1c0,5.2,1.4,8.2,3.3,8.2c0.5,0,1-0.2,1.2-0.3v-5.3
		h-1.6v-4.4h3.9V385.9z"/>
	<path class="st3" d="M152.2,376.4h-3.9v5.9h4.3v4.7H146v-25.1h6.5v4.7h-4.1v5.2h3.9V376.4z"/>
	<path class="st3" d="M154.4,381.2c0.6,0.8,1.6,1.6,2.6,1.6c1.1,0,1.7-1.1,1.7-2.7c0-1.6-0.5-2.5-1.8-3.5c-1.7-1.5-2.9-3.8-2.9-7.4
		c0-4.3,1.5-7.5,4-7.5c1.2,0,2.1,0.6,2.7,1.3l-0.5,4.5c-0.4-0.5-1.2-1.2-2.2-1.2c-1,0-1.5,1.2-1.5,2.4c0,1.6,0.6,2.3,1.9,3.5
		c1.9,1.6,2.7,3.9,2.7,7.5c0,4.2-1.3,7.8-4.2,7.8c-1.2,0-2.4-0.8-3-1.6L154.4,381.2z"/>
	<path class="st3" d="M164.7,366.7h-2.8v-4.8h8.1v4.8h-2.9V387h-2.4V366.7z"/>
	<path class="st3" d="M176.8,361.9V387h-2.4v-25.1H176.8z"/>
	<path class="st3" d="M178.8,387v-25.1h2.8l2.2,9.2c0.6,2.6,1.2,5.8,1.7,8.6h0c-0.1-3.3-0.2-6.7-0.2-10.5v-7.3h2.2V387h-2.5
		l-2.2-9.7c-0.6-2.7-1.3-5.9-1.8-8.9h-0.1c0.1,3.3,0.1,6.9,0.1,11v7.6H178.8z"/>
	<path class="st3" d="M191.7,366.7h-2.8v-4.8h8.1v4.8H194V387h-2.4V366.7z"/>
	<path class="st3" d="M204.4,376.4h-3.9v5.9h4.3v4.7h-6.7v-25.1h6.5v4.7h-4.1v5.2h3.9V376.4z"/>
	<path class="st3" d="M206.5,362.3c0.8-0.3,1.9-0.5,3.2-0.5c1.6,0,2.6,0.6,3.4,2c0.6,1.2,1,3,1,5.3c0,3.2-1,5.4-1.9,6.1v0.1
		c0.7,0.7,1.1,2.3,1.4,4.7c0.3,2.9,0.6,6.1,0.8,7.1H212c-0.2-0.7-0.4-2.8-0.7-5.8c-0.3-3.2-0.7-4-1.7-4h-0.7v9.9h-2.4V362.3z
		 M208.8,373.1h0.9c1.2,0,1.9-1.4,1.9-3.6c0-2.3-0.7-3.5-1.7-3.5c-0.6,0-0.9,0.1-1.1,0.2V373.1z"/>
	<path class="st3" d="M215.7,387v-25.1h2.8l2.2,9.2c0.6,2.6,1.2,5.8,1.7,8.6h0c-0.1-3.3-0.2-6.7-0.2-10.5v-7.3h2.2V387h-2.5
		l-2.2-9.7c-0.6-2.7-1.3-5.9-1.8-8.9h-0.1c0.1,3.3,0.1,6.9,0.1,11v7.6H215.7z"/>
	<path class="st3" d="M229,380.6l-0.7,6.4h-2.4l3.2-25.1h3.1l3.3,25.1h-2.6l-0.8-6.4H229z M231.6,376.3L231,371
		c-0.2-1.5-0.4-3.3-0.5-4.8h0c-0.2,1.5-0.3,3.4-0.5,4.8l-0.6,5.3H231.6z"/>
	<path class="st3" d="M237.5,366.7h-2.8v-4.8h8.1v4.8h-2.9V387h-2.4V366.7z"/>
	<path class="st3" d="M246.4,361.9V387H244v-25.1H246.4z"/>
	<path class="st3" d="M258.1,374.2c0,8.3-2.1,13.2-5.2,13.2c-3.1,0-4.9-5.6-4.9-12.8c0-7.5,2-13.1,5.1-13.1
		C256.3,361.5,258.1,367.3,258.1,374.2z M250.5,374.5c0,4.9,1,8.4,2.6,8.4c1.6,0,2.5-3.6,2.5-8.5c0-4.5-0.9-8.4-2.5-8.4
		C251.4,366,250.5,369.6,250.5,374.5z"/>
	<path class="st3" d="M259.6,387v-25.1h2.8l2.2,9.2c0.6,2.6,1.2,5.8,1.7,8.6h0c-0.1-3.3-0.2-6.7-0.2-10.5v-7.3h2.2V387h-2.5
		l-2.2-9.7c-0.6-2.7-1.3-5.9-1.8-8.9h-0.1c0.1,3.3,0.1,6.9,0.1,11v7.6H259.6z"/>
	<path class="st3" d="M272.9,380.6l-0.7,6.4h-2.4l3.2-25.1h3.1l3.3,25.1h-2.6l-0.8-6.4H272.9z M275.5,376.3l-0.7-5.3
		c-0.2-1.5-0.4-3.3-0.5-4.8h0c-0.2,1.5-0.3,3.4-0.5,4.8l-0.6,5.3H275.5z"/>
	<path class="st3" d="M280.7,361.9h2.4v20.3h4.2v4.8h-6.5V361.9z"/>
	<path class="st3" d="M291.8,362.3c0.6-0.3,1.9-0.5,3.1-0.5c1.5,0,2.3,0.3,3.1,1.4c0.7,0.9,1.2,2.6,1.2,4.9c0,2.2-0.5,4.2-1.7,5.3
		v0.1c1.2,0.7,2.1,2.9,2.1,6.1c0,2.3-0.4,4.1-1.1,5.4c-0.8,1.5-2,2.3-4.1,2.3c-1.2,0-2-0.2-2.6-0.4V362.3z M294.1,371.9h0.8
		c1.3,0,1.9-1.2,1.9-3.1c0-1.9-0.6-2.9-1.7-2.9c-0.5,0-0.8,0.1-1,0.2V371.9z M294.1,383c0.2,0.1,0.5,0.1,0.9,0.1c1.1,0,2-1,2-3.6
		c0-2.5-1-3.5-2.1-3.5h-0.8V383z"/>
	<path class="st3" d="M303.6,361.9v14.4c0,4.3,0.7,6.5,1.9,6.5c1.2,0,1.9-2.1,1.9-6.5v-14.4h2.4V376c0,7.7-1.6,11.4-4.4,11.4
		c-2.6,0-4.2-3.5-4.2-11.5v-14H303.6z"/>
	<path class="st3" d="M314.2,361.9V387h-2.4v-25.1H314.2z"/>
	<path class="st3" d="M316.3,361.9h2.4v20.3h4.2v4.8h-6.5V361.9z"/>
	<path class="st3" d="M324.2,362.3c0.9-0.3,2-0.6,3.2-0.6c2,0,3.3,0.9,4.3,2.7c1.1,1.9,1.8,5,1.8,9.4c0,4.8-0.7,8.1-1.7,10.2
		c-1.1,2.2-2.8,3.2-4.9,3.2c-1.2,0-2.1-0.2-2.7-0.4V362.3z M326.6,382.7c0.2,0.1,0.5,0.1,0.8,0.1c2.2,0,3.6-2.8,3.6-8.8
		c0-5.2-1.3-8-3.3-8c-0.5,0-0.9,0.1-1.1,0.2V382.7z"/>
	<path class="st3" d="M337.5,361.9V387h-2.4v-25.1H337.5z"/>
	<path class="st3" d="M339.5,387v-25.1h2.8l2.2,9.2c0.6,2.6,1.2,5.8,1.7,8.6h0c-0.1-3.3-0.2-6.7-0.2-10.5v-7.3h2.2V387h-2.5
		l-2.2-9.7c-0.6-2.7-1.3-5.9-1.8-8.9h-0.1c0.1,3.3,0.1,6.9,0.1,11v7.6H339.5z"/>
	<path class="st3" d="M359.1,385.9c-0.7,0.6-2.1,1.4-3.5,1.4c-1.9,0-3.3-1.2-4.3-3.3c-1-2.2-1.5-5.5-1.5-9.1c0-8.3,2.6-13.1,6-13.1
		c1.4,0,2.4,0.6,2.9,1.2l-0.5,4.6c-0.6-0.6-1.3-1.1-2.4-1.1c-2,0-3.5,2.6-3.5,8.1c0,5.2,1.4,8.2,3.3,8.2c0.5,0,1-0.2,1.2-0.3v-5.3
		h-1.6v-4.4h3.9V385.9z"/>
	<path class="st3" d="M370.8,387c-0.2-0.6-0.4-1.1-0.7-1.8c-0.7,1.3-1.6,2.2-2.9,2.2c-2.5,0-3.7-3.6-3.7-7.1c0-3.3,0.8-5.7,2-7.2
		V373c-0.5-1.2-0.8-3.1-0.8-4.9c0-3.2,1.1-6.6,3.2-6.6c1.6,0,2.8,2.3,2.8,5.9c0,2.5-0.6,4.7-2.1,6.4l0,0.2c0.6,1.6,1.2,3.5,1.8,4.7
		c0.4-1.6,0.7-3.9,0.9-6.1h2.1c-0.3,3.8-0.8,7.1-1.7,9.5c0.6,1.6,1.2,3.3,1.9,4.9H370.8z M369,382.1c-0.6-1.5-1.5-3.9-2.4-6.2
		c-0.4,0.8-0.8,1.9-0.8,3.5c0,2.2,0.7,3.9,1.8,3.9C368.2,383.3,368.7,382.8,369,382.1z M367.8,365c-0.6,0-0.9,1.3-0.9,2.6
		c0,1.3,0.2,2.4,0.7,3.6c0.8-1.2,1.1-2.2,1.1-3.7C368.7,366.3,368.4,365,367.8,365L367.8,365z"/>
	<path class="st3" d="M385.5,386.3c-0.4,0.5-1.4,1.1-2.7,1.1c-3.6,0-5.5-5.4-5.5-12.6c0-8.6,2.6-13.3,5.7-13.3
		c1.2,0,2.2,0.6,2.6,1.1l-0.5,4.5c-0.5-0.5-1.1-0.9-2-0.9c-1.9,0-3.3,2.7-3.3,8.3c0,5,1.2,8.2,3.4,8.2c0.7,0,1.5-0.3,2-0.8
		L385.5,386.3z"/>
	<path class="st3" d="M396.3,374.2c0,8.3-2.1,13.2-5.2,13.2c-3.1,0-4.9-5.6-4.9-12.8c0-7.5,2-13.1,5.1-13.1
		C394.5,361.5,396.3,367.3,396.3,374.2z M388.7,374.5c0,4.9,1,8.4,2.6,8.4c1.6,0,2.5-3.6,2.5-8.5c0-4.5-0.9-8.4-2.5-8.4
		C389.6,366,388.7,369.6,388.7,374.5z"/>
	<path class="st3" d="M397.8,387v-25.1h2.8l2.2,9.2c0.6,2.6,1.2,5.8,1.7,8.6h0c-0.1-3.3-0.2-6.7-0.2-10.5v-7.3h2.2V387H404l-2.2-9.7
		c-0.6-2.7-1.3-5.9-1.8-8.9h-0.1c0.1,3.3,0.1,6.9,0.1,11v7.6H397.8z"/>
	<path class="st3" d="M408.7,381.2c0.6,0.8,1.6,1.6,2.6,1.6c1.1,0,1.7-1.1,1.7-2.7c0-1.6-0.5-2.5-1.8-3.5c-1.7-1.5-2.9-3.8-2.9-7.4
		c0-4.3,1.5-7.5,4-7.5c1.2,0,2.1,0.6,2.7,1.3l-0.5,4.5c-0.4-0.5-1.2-1.2-2.2-1.2c-1,0-1.5,1.2-1.5,2.4c0,1.6,0.6,2.3,1.9,3.5
		c1.9,1.6,2.7,3.9,2.7,7.5c0,4.2-1.3,7.8-4.2,7.8c-1.2,0-2.4-0.8-3-1.6L408.7,381.2z"/>
	<path class="st3" d="M419.1,366.7h-2.8v-4.8h8.1v4.8h-2.9V387h-2.4V366.7z"/>
	<path class="st3" d="M425.6,362.3c0.8-0.3,1.9-0.5,3.2-0.5c1.6,0,2.6,0.6,3.4,2c0.6,1.2,1,3,1,5.3c0,3.2-1,5.4-1.9,6.1v0.1
		c0.7,0.7,1.1,2.3,1.4,4.7c0.3,2.9,0.6,6.1,0.8,7.1h-2.4c-0.2-0.7-0.4-2.8-0.7-5.8c-0.3-3.2-0.7-4-1.7-4h-0.7v9.9h-2.4V362.3z
		 M427.9,373.1h0.9c1.2,0,1.9-1.4,1.9-3.6c0-2.3-0.7-3.5-1.7-3.5c-0.6,0-0.9,0.1-1.1,0.2V373.1z"/>
	<path class="st3" d="M437.1,361.9v14.4c0,4.3,0.7,6.5,1.9,6.5c1.2,0,1.9-2.1,1.9-6.5v-14.4h2.4V376c0,7.7-1.6,11.4-4.4,11.4
		c-2.6,0-4.2-3.5-4.2-11.5v-14H437.1z"/>
	<path class="st3" d="M453.1,386.3c-0.4,0.5-1.4,1.1-2.7,1.1c-3.6,0-5.5-5.4-5.5-12.6c0-8.6,2.6-13.3,5.7-13.3
		c1.2,0,2.2,0.6,2.6,1.1l-0.5,4.5c-0.5-0.5-1.1-0.9-2-0.9c-1.9,0-3.3,2.7-3.3,8.3c0,5,1.2,8.2,3.4,8.2c0.7,0,1.5-0.3,2-0.8
		L453.1,386.3z"/>
	<path class="st3" d="M456.9,366.7h-2.8v-4.8h8.1v4.8h-2.9V387h-2.4V366.7z"/>
	<path class="st3" d="M465.8,361.9V387h-2.4v-25.1H465.8z"/>
	<path class="st3" d="M477.5,374.2c0,8.3-2.1,13.2-5.2,13.2c-3.1,0-4.9-5.6-4.9-12.8c0-7.5,2-13.1,5.1-13.1
		C475.8,361.5,477.5,367.3,477.5,374.2z M469.9,374.5c0,4.9,1,8.4,2.6,8.4c1.6,0,2.5-3.6,2.5-8.5c0-4.5-0.9-8.4-2.5-8.4
		C470.9,366,469.9,369.6,469.9,374.5z"/>
	<path class="st3" d="M479.1,387v-25.1h2.8l2.2,9.2c0.6,2.6,1.2,5.8,1.7,8.6h0c-0.1-3.3-0.2-6.7-0.2-10.5v-7.3h2.2V387h-2.5
		l-2.2-9.7c-0.6-2.7-1.3-5.9-1.8-8.9h-0.1c0.1,3.3,0.1,6.9,0.1,11v7.6H479.1z"/>
	<path class="st3" d="M495.4,361.9V387H493v-25.1H495.4z"/>
	<path class="st3" d="M497.4,387v-25.1h2.8l2.2,9.2c0.6,2.6,1.2,5.8,1.7,8.6h0c-0.1-3.3-0.2-6.7-0.2-10.5v-7.3h2.2V387h-2.5
		l-2.2-9.7c-0.6-2.7-1.3-5.9-1.8-8.9h-0.1c0.1,3.3,0.1,6.9,0.1,11v7.6H497.4z"/>
	<path class="st3" d="M508.2,362.3c0.9-0.3,2-0.6,3.2-0.6c2,0,3.3,0.9,4.3,2.7c1.1,1.9,1.8,5,1.8,9.4c0,4.8-0.7,8.1-1.7,10.2
		c-1.1,2.2-2.8,3.2-4.9,3.2c-1.2,0-2.1-0.2-2.7-0.4V362.3z M510.6,382.7c0.2,0.1,0.5,0.1,0.8,0.1c2.2,0,3.6-2.8,3.6-8.8
		c0-5.2-1.3-8-3.3-8c-0.5,0-0.9,0.1-1.1,0.2V382.7z"/>
	<path class="st3" d="M521.4,361.9v14.4c0,4.3,0.7,6.5,1.9,6.5c1.2,0,1.9-2.1,1.9-6.5v-14.4h2.4V376c0,7.7-1.6,11.4-4.4,11.4
		c-2.6,0-4.2-3.5-4.2-11.5v-14H521.4z"/>
	<path class="st3" d="M529.8,381.2c0.6,0.8,1.6,1.6,2.6,1.6c1.1,0,1.7-1.1,1.7-2.7c0-1.6-0.5-2.5-1.8-3.5c-1.7-1.5-2.9-3.8-2.9-7.4
		c0-4.3,1.5-7.5,4-7.5c1.2,0,2.1,0.6,2.7,1.3l-0.5,4.5c-0.4-0.5-1.2-1.2-2.2-1.2c-1,0-1.5,1.2-1.5,2.4c0,1.6,0.6,2.3,1.9,3.5
		c1.9,1.6,2.7,3.9,2.7,7.5c0,4.2-1.3,7.8-4.2,7.8c-1.2,0-2.4-0.8-3-1.6L529.8,381.2z"/>
	<path class="st3" d="M540.2,366.7h-2.8v-4.8h8.1v4.8h-2.9V387h-2.4V366.7z"/>
	<path class="st3" d="M546.7,362.3c0.8-0.3,1.9-0.5,3.2-0.5c1.6,0,2.6,0.6,3.4,2c0.6,1.2,1,3,1,5.3c0,3.2-1,5.4-1.9,6.1v0.1
		c0.7,0.7,1.1,2.3,1.4,4.7c0.3,2.9,0.6,6.1,0.8,7.1h-2.4c-0.2-0.7-0.4-2.8-0.7-5.8c-0.3-3.2-0.7-4-1.7-4H549v9.9h-2.4V362.3z
		 M549,373.1h0.9c1.2,0,1.9-1.4,1.9-3.6c0-2.3-0.7-3.5-1.7-3.5c-0.6,0-0.9,0.1-1.1,0.2V373.1z"/>
	<path class="st3" d="M558.1,387v-10.3l-3.3-14.8h2.7l1.1,6c0.3,1.8,0.6,3.2,0.8,4.8h0c0.2-1.6,0.5-3,0.8-4.8l1.1-6h2.7l-3.5,14.6
		V387H558.1z"/>
	<path class="st3" d="M568.3,381.2c0.6,0.8,1.6,1.6,2.6,1.6c1.1,0,1.7-1.1,1.7-2.7c0-1.6-0.5-2.5-1.8-3.5c-1.7-1.5-2.9-3.8-2.9-7.4
		c0-4.3,1.5-7.5,4-7.5c1.2,0,2.1,0.6,2.7,1.3l-0.5,4.5c-0.4-0.5-1.2-1.2-2.2-1.2c-1,0-1.5,1.2-1.5,2.4c0,1.6,0.6,2.3,1.9,3.5
		c1.9,1.6,2.7,3.9,2.7,7.5c0,4.2-1.3,7.8-4.2,7.8c-1.2,0-2.4-0.8-3-1.6L568.3,381.2z"/>
	<path class="st3" d="M579,361.9v9.6h3.9v-9.6h2.4V387h-2.4v-10.5H579V387h-2.4v-25.1H579z"/>
	<path class="st3" d="M597,374.2c0,8.3-2.1,13.2-5.2,13.2c-3.1,0-4.9-5.6-4.9-12.8c0-7.5,2-13.1,5.1-13.1
		C595.2,361.5,597,367.3,597,374.2z M589.4,374.5c0,4.9,1,8.4,2.6,8.4c1.6,0,2.5-3.6,2.5-8.5c0-4.5-0.9-8.4-2.5-8.4
		C590.3,366,589.4,369.6,589.4,374.5z"/>
	<path class="st3" d="M600.2,387l-2.5-25.1h2.5l0.8,10.3c0.2,3,0.5,6.3,0.6,8.8h0c0.2-2.7,0.4-5.7,0.7-8.9l0.9-10.2h2.5l0.8,10.6
		c0.2,2.9,0.4,5.6,0.6,8.4h0c0.2-2.8,0.4-5.7,0.6-8.7l0.9-10.2h2.4l-2.7,25.1h-2.6l-0.9-10.8c-0.2-2.5-0.4-4.9-0.5-7.7h0
		c-0.2,2.8-0.4,5.2-0.6,7.7l-1,10.8H600.2z"/>
</g>
</svg>
