<?xml version="1.0" encoding="utf-8"?>
<!-- Generator: Adobe Illustrator 19.2.1, SVG Export Plug-In . SVG Version: 6.00 Build 0)  -->
<svg version="1.1" id="layer" xmlns="http://www.w3.org/2000/svg" xmlns:xlink="http://www.w3.org/1999/xlink" x="0px" y="0px"
	 viewBox="0 0 652 652" style="enable-background:new 0 0 652 652;" xml:space="preserve">
<style type="text/css">
	.st0{fill:#929497;}
	.st1{fill:#EC1C24;}
	.st2{fill:#231F20;}
</style>
<path class="st0" d="M457.7,262.3h-61.3l-7.3,32.5c9.5,0.8,18.5,1.9,27.4,3.1l4.1-18.3l5.2,19.6c13.6,1.8,27.7,3.7,44.2,4.6
	L457.7,262.3"/>
<path class="st0" d="M568.4,262.3c-28.8,0-48,6.3-57.7,18.9l4.2-18.8h-28.1l-9.3,41.8c4.6,0.2,9.4,0.3,14.4,0.3
	c19.9,0,40.5-4.4,59.6-10.5c2.9-9.3,9.2-13.9,18.8-13.9h17c15.1-6.8,27.2-13.5,34.4-17.7H568.4"/>
<path class="st0" d="M361.4,293.6c5.7,0,11.2,0.2,16.4,0.4l1.2-5.6h-59.4l2.1-9.4H385l3.6-16.8h-96.7l-10.2,45.8
	C293.2,303.7,324.3,293.6,361.4,293.6"/>
<path class="st1" d="M56.6,273.4c-0.2,12,5.7,23,14.6,29.5c8.9-6.5,14.8-17.5,14.5-29.5c-0.2-11.9-6-22.3-14.5-28.4
	C62.6,251.1,56.8,261.5,56.6,273.4"/>
<path class="st1" d="M53.3,330.5c10.3-5.8,16.8-16.5,17.9-27.5c-10-4.6-22.4-4.2-32.5,2c-10.1,6.1-16,16.4-16.9,27
	C31.3,336.4,43,336.2,53.3,330.5"/>
<path class="st1" d="M103.6,304.9c-10.1-6.2-22.5-6.5-32.5-2c1.1,11.1,7.6,21.8,17.9,27.5c10.3,5.8,22,5.9,31.5,1.4
	C119.7,321.3,113.7,311,103.6,304.9"/>
<polyline class="st2" points="243.4,288.4 240.3,303.3 274.9,303.3 278.3,288.4 243.4,288.4 "/>
<path class="st2" d="M200,262.3l-7,30.9c-3.1,13.5-10.9,20.3-23.5,20.3h-35l-3.9,18.2h44c17.9,0,31.4-2.5,40.7-7.6
	c10.1-5.6,16.6-14.9,19.4-27.9l7.5-33.8H200"/>
<path class="st2" d="M389.1,294.8l-4.5,20h-70.8l2.4-10.6h59.5l2.2-10.2c-5.2-0.3-10.7-0.4-16.4-0.4c-37.2,0-68.2,10.1-79.8,14.4
	l-5.3,23.6H409l7.5-33.7C407.6,296.7,398.6,295.6,389.1,294.8"/>
<path class="st2" d="M569.2,313.4h-6.4c-7.5,0-11.7-2.7-12.7-8.2c-0.1-0.8,0-6.2,0.5-8.3c0.2-1.1,0.5-2.1,0.8-3
	c-19,6.1-39.6,10.5-59.6,10.5c-5,0-9.8-0.1-14.4-0.3l-3.2,14.6l-4.4-14.9c-16.5-0.9-30.5-2.7-44.2-4.6l8.6,32.4h65.1l4.7-20.8
	c1.4,5.3,4.5,9.6,9.4,12.8c8.2,5.3,21.5,8,39.9,8h53.8l8.3-36.8h-42.2L569.2,313.4"/>
<path class="st2" d="M587.3,280h30.7l3.7-17.7h-0.1C614.5,266.4,602.4,273.1,587.3,280"/>
<path class="st2" d="M33.9,351h5v23.2c0,9.2-5,12-11.5,12c-1.9,0-4.1-0.4-5.2-0.8l0.7-3.7c1,0.4,2.5,0.7,4.2,0.7
	c4.4,0,6.9-1.8,6.9-8.6V351"/>
<path class="st2" d="M65,379.7c0,2.2,0.1,4.3,0.4,6h-4.5l-0.5-3.1h-0.2c-1.5,2-4.5,3.7-8.4,3.7c-5.5,0-8.4-3.5-8.4-7.2
	c0-6,5.9-9.3,16.4-9.3v-0.5c0-2.1-0.6-5.8-6.2-5.8c-2.6,0-5.3,0.7-7.2,1.9l-1.1-3c2.3-1.3,5.6-2.2,9-2.2c8.4,0,10.4,5.2,10.4,10.2
	V379.7 M60.1,373c-5.4-0.1-11.6,0.8-11.6,5.6c0,3,2.1,4.3,4.6,4.3c3.6,0,5.9-2.1,6.7-4.2l0.2-1.4V373z"/>
<path class="st2" d="M70.7,368.9c0-3.2-0.1-5.8-0.2-8.1h4.5l0.3,4.3h0.1c2-3.1,5.3-4.8,9.7-4.8c6.7,0,11.6,5.1,11.6,12.7
	c0,9-6,13.4-12.4,13.4c-3.7,0-6.8-1.4-8.4-3.9h-0.1v13.5h-5V368.9 M75.6,375.6l0.2,1.9c0.8,3.1,3.9,5.3,7.4,5.3
	c5.2,0,8.3-3.9,8.3-9.6c0-5-2.8-9.3-8.1-9.3c-3.4,0-6.6,2.2-7.6,5.6l-0.3,1.8V375.6z"/>
<path class="st2" d="M119.8,379.7c0,2.2,0.1,4.3,0.4,6h-4.5l-0.4-3.1h-0.2c-1.5,2-4.5,3.7-8.4,3.7c-5.5,0-8.4-3.5-8.4-7.2
	c0-6,5.9-9.3,16.4-9.3v-0.5c0-2.1-0.6-5.8-6.2-5.8c-2.6,0-5.2,0.7-7.2,1.9l-1.1-3c2.3-1.3,5.6-2.2,9-2.2c8.4,0,10.4,5.2,10.4,10.2
	V379.7 M114.9,373c-5.4-0.1-11.6,0.8-11.6,5.6c0,3,2.1,4.3,4.6,4.3c3.6,0,5.9-2.1,6.7-4.2l0.2-1.4V373z"/>
<path class="st2" d="M125.5,367.5c0-2.6-0.1-4.7-0.2-6.7h4.4l0.3,4.1h0.1c1.4-2.3,4.5-4.6,9-4.6c3.8,0,9.6,2.1,9.6,10.6v14.9h-5
	v-14.4c0-4-1.6-7.4-6.3-7.4c-3.2,0-5.8,2.1-6.7,4.6c-0.2,0.6-0.3,1.4-0.3,2.1v15h-5V367.5"/>
<polyline class="st2" points="192.2,369.4 177.5,369.4 177.5,381.9 194,381.9 194,385.7 172.5,385.7 172.5,351 193.1,351 
	193.1,354.8 177.5,354.8 177.5,365.7 192.2,365.7 192.2,369.4 "/>
<path class="st2" d="M199.1,367.5c0-2.6-0.1-4.7-0.2-6.7h4.4l0.3,4.1h0.1c1.4-2.3,4.5-4.6,9-4.6c3.8,0,9.6,2.1,9.6,10.6v14.9h-5
	v-14.4c0-4-1.6-7.4-6.3-7.4c-3.2,0-5.8,2.1-6.7,4.6c-0.2,0.6-0.3,1.4-0.3,2.1v15h-5V367.5"/>
<path class="st2" d="M251.5,382c0,5.8-1.3,9.2-3.9,11.4c-2.7,2.2-6.5,3-10,3c-3.3,0-6.9-0.7-9.1-2.1l1.2-3.5c1.8,1.1,4.6,2,8,2
	c5.1,0,8.8-2.4,8.8-8.7v-2.7h-0.1c-1.5,2.3-4.5,4.2-8.7,4.2c-6.8,0-11.6-5.2-11.6-12.2c0-8.4,6-13.2,12.4-13.2
	c4.7,0,7.3,2.2,8.5,4.3h0.1l0.2-3.7h4.4c-0.2,1.7-0.2,3.8-0.2,6.8V382 M246.5,370.6c0-0.7-0.1-1.4-0.3-2c-0.9-2.7-3.3-4.8-6.9-4.8
	c-4.7,0-8.1,3.7-8.1,9.5c0,4.8,2.8,9,8.1,9c3.1,0,5.9-1.8,6.9-4.7c0.3-0.7,0.4-1.6,0.4-2.4V370.6z"/>
<path class="st2" d="M260.9,356.2c-1.9,0-3.1-1.3-3.1-2.9c0-1.6,1.3-2.9,3.2-2.9c1.9,0,3.2,1.3,3.2,2.9
	C264.2,354.9,263,356.2,260.9,356.2L260.9,356.2 M263.5,385.7h-5v-24.9h5V385.7z"/>
<path class="st2" d="M270.6,367.5c0-2.6-0.1-4.7-0.2-6.7h4.4l0.3,4.1h0.1c1.4-2.3,4.5-4.6,9-4.6c3.8,0,9.6,2.1,9.6,10.6v14.9h-5
	v-14.4c0-4-1.6-7.4-6.3-7.4c-3.2,0-5.8,2.1-6.7,4.6c-0.2,0.6-0.3,1.4-0.3,2.1v15h-5V367.5"/>
<path class="st2" d="M302.5,374c0.1,6.1,4.3,8.6,9.3,8.6c3.6,0,5.8-0.6,7.6-1.2l0.9,3.2c-1.8,0.7-4.8,1.6-9.1,1.6
	c-8.4,0-13.4-5.1-13.4-12.6c0-7.6,4.9-13.5,12.9-13.5c8.9,0,11.2,7.2,11.2,11.7c0,0.9,0,1.6-0.2,2.2L302.5,374 M317,370.8
	c0.1-2.8-1.3-7.4-6.8-7.4c-5.1,0-7.2,4.2-7.6,7.4H317z"/>
<path class="st2" d="M368.7,384.6c-1.8,0.8-5.4,1.7-10.1,1.7c-10.7,0-18.7-6.2-18.7-17.6c0-10.9,8.1-18.2,19.9-18.2
	c4.7,0,7.7,0.9,9,1.5l-1.2,3.7c-1.8-0.8-4.5-1.4-7.6-1.4c-8.9,0-14.8,5.2-14.8,14.3c0,8.5,5.4,13.9,14.6,13.9c3,0,6.1-0.6,8.1-1.4
	L368.7,384.6"/>
<path class="st2" d="M384.7,386.3c-7.3,0-13.1-4.9-13.1-12.8c0-8.3,6-13.2,13.5-13.2c7.8,0,13.1,5.2,13.1,12.8
	C398.3,382.3,391.2,386.3,384.7,386.3L384.7,386.3 M384.9,382.9c4.7,0,8.3-4.1,8.3-9.7c0-4.2-2.3-9.5-8.2-9.5
	c-5.8,0-8.4,4.9-8.4,9.7C376.6,378.8,380,382.9,384.9,382.9L384.9,382.9z"/>
<path class="st2" d="M402.4,368.6c0-2.9-0.1-5.5-0.2-7.8h4.4l0.2,4.9h0.2c1.2-3.4,4.3-5.5,7.6-5.5l1.4,0.2v4.2
	c-0.6,0-1.1-0.1-1.7-0.1c-3.5,0-6,2.4-6.7,5.8c-0.1,0.7-0.2,1.4-0.2,2.2v13.3h-5L402.4,368.6"/>
<path class="st2" d="M419.6,368.9c0-3.2-0.1-5.8-0.2-8.1h4.5l0.3,4.3h0.1c2-3.1,5.2-4.8,9.7-4.8c6.7,0,11.6,5.1,11.6,12.7
	c0,9-6,13.4-12.4,13.4c-3.7,0-6.8-1.4-8.4-3.9h-0.1v13.5h-5V368.9 M424.6,375.6l0.2,1.9c0.8,3.1,3.9,5.3,7.4,5.3
	c5.2,0,8.3-3.9,8.3-9.6c0-5-2.8-9.3-8.1-9.3c-3.4,0-6.6,2.2-7.6,5.6l-0.3,1.8V375.6z"/>
<path class="st2" d="M460.6,386.3c-7.3,0-13.1-4.9-13.1-12.8c0-8.3,6-13.2,13.5-13.2c7.9,0,13.1,5.2,13.1,12.8
	C474.2,382.3,467.2,386.3,460.6,386.3L460.6,386.3 M460.8,382.9c4.7,0,8.3-4.1,8.3-9.7c0-4.2-2.3-9.5-8.2-9.5
	c-5.8,0-8.4,4.9-8.4,9.7C452.5,378.8,455.9,382.9,460.8,382.9L460.8,382.9z"/>
<path class="st2" d="M478.3,368.6c0-2.9-0.1-5.5-0.2-7.8h4.4l0.2,4.9h0.2c1.2-3.4,4.3-5.5,7.6-5.5l1.3,0.2v4.2
	c-0.6,0-1.1-0.1-1.7-0.1c-3.5,0-6,2.4-6.7,5.8c-0.1,0.7-0.2,1.4-0.2,2.2v13.3h-5L478.3,368.6"/>
<path class="st2" d="M514.8,379.7c0,2.2,0.1,4.3,0.4,6h-4.5l-0.4-3.1h-0.2c-1.5,2-4.5,3.7-8.4,3.7c-5.5,0-8.4-3.5-8.4-7.2
	c0-6,5.9-9.3,16.4-9.3v-0.5c0-2.1-0.6-5.8-6.2-5.8c-2.6,0-5.3,0.7-7.2,1.9l-1.1-3c2.3-1.3,5.6-2.2,9-2.2c8.4,0,10.4,5.2,10.4,10.2
	V379.7 M510,373c-5.4-0.1-11.6,0.8-11.6,5.6c0,3,2.2,4.3,4.6,4.3c3.6,0,5.9-2.1,6.7-4.2l0.2-1.4V373z"/>
<path class="st2" d="M526.5,354.8v6h7.1v3.4h-7.1v13.4c0,3.1,1,4.8,3.7,4.8c1.4,0,2.1-0.1,2.9-0.3l0.2,3.4c-1,0.3-2.5,0.6-4.4,0.6
	c-2.3,0-4.2-0.7-5.4-1.9c-1.4-1.4-1.9-3.6-1.9-6.5v-13.6h-4.2v-3.4h4.2v-4.6L526.5,354.8"/>
<path class="st2" d="M540.4,356.2c-1.9,0-3.1-1.3-3.1-2.9c0-1.6,1.3-2.9,3.2-2.9c1.9,0,3.2,1.3,3.2,2.9
	C543.7,354.9,542.5,356.2,540.4,356.2L540.4,356.2 M543,385.7h-5v-24.9h5V385.7z"/>
<path class="st2" d="M560.1,386.3c-7.3,0-13.1-4.9-13.1-12.8c0-8.3,6-13.2,13.5-13.2c7.8,0,13.2,5.2,13.2,12.8
	C573.7,382.3,566.7,386.3,560.1,386.3L560.1,386.3 M560.3,382.9c4.7,0,8.3-4.1,8.3-9.7c0-4.2-2.3-9.5-8.2-9.5
	c-5.8,0-8.4,4.9-8.4,9.7C552.1,378.8,555.4,382.9,560.3,382.9L560.3,382.9z"/>
<path class="st2" d="M577.7,367.5c0-2.6-0.1-4.7-0.2-6.7h4.4l0.3,4.1h0.1c1.4-2.3,4.5-4.6,9-4.6c3.8,0,9.7,2.1,9.7,10.6v14.9h-5
	v-14.4c0-4-1.6-7.4-6.3-7.4c-3.2,0-5.8,2.1-6.7,4.6c-0.2,0.6-0.3,1.4-0.3,2.1v15h-5V367.5"/>
</svg>
