<?xml version="1.0" encoding="utf-8"?>
<!-- Generator: Adobe Illustrator 19.2.1, SVG Export Plug-In . SVG Version: 6.00 Build 0)  -->
<svg version="1.1" id="layer" xmlns="http://www.w3.org/2000/svg" xmlns:xlink="http://www.w3.org/1999/xlink" x="0px" y="0px"
	 viewBox="0 0 652 652" style="enable-background:new 0 0 652 652;" xml:space="preserve">
<style type="text/css">
	.st0{fill:#0076BE;}
</style>
<g>
	<path class="st0" d="M126.9,322.5c-0.6-0.2-1.1-0.3-1.7-0.4c9.4,5.2,14.4,16.5,11.5,27.6l-6.4,23.5l-23-6.2
		c-10.9-2.9-17.9-13.1-17.5-24.1c-0.2,0.6-0.4,1.1-0.6,1.7c-4.5,16.7,5.1,33.8,21.4,38.2l29.6,8l8.2-30.2
		C152.8,344,143.2,326.9,126.9,322.5"/>
	<path class="st0" d="M57.4,338.7l-17-16.8l16.8-17c4.3-4.3,9.8-6.7,15.5-7c3.3,0,4.8,3.1,6,7.3l1.8,6.6c0.1,0.4,0.3,0.9,0.4,1.3
		c0,0.1,0,0.1,0.1,0.2v0c2.7,7.1,10.2,10.7,17.3,8c0.3-0.1,0.5-0.2,0.8-0.3c-5,0.6-9.8-2.6-11.3-8l-3-10.8l10.4-4.2
		c4.9-1.8,10.1,0.2,12.7,4.6c-0.1-0.3-0.1-0.6-0.2-0.8c-2-6.6-8.1-10.5-14.4-9.7h-0.1c-1.4,0-1.3-1-1.1-1.6
		c2.6-6.9,8.4-12.5,16.1-14.6l23.1-6.1l4.9,18.6c0.5,1.8-1.2,2.7-4.1,2.4l-2.3-0.4h0c-0.1,0-0.2-0.1-0.3-0.1l-2.8-0.5
		c-7.6-1.4-15,3.8-16.6,11.9c-0.1,0.3-0.1,0.6-0.1,0.9c2.1-4.8,7.1-7.7,12.2-6.7l10.8,2.1l-2,11.6c-1,5.6-5.4,9.8-10.5,10.1
		c0.3,0.1,0.5,0.2,0.8,0.2c1.5,0.3,3,0.3,4.5,0.1c0,0,0,0,0,0c0.1,0,0.1,0,0.2,0c0.5-0.1,0.9-0.2,1.3-0.3c0.1,0,0.1,0,0.2-0.1
		c16.3-4.4,26.1-21.1,21.7-37.5l-7.9-29.6l-29.6,7.9c-14.3,3.8-23.6,17.2-22.7,31.5l0,0c0,0,0.2,1.4-1.4,2.1l-4.2,1.7
		c0,0-2.5,1.1-4.8-0.3c-0.2-0.1-0.3-0.2-0.4-0.2c-11.7-6.3-26.5-4.4-36.3,5.5L20.4,322l21.8,21.5c12,11.9,31.4,11.8,43.3-0.2
		c0.4-0.4,0.8-0.9,1.2-1.3C77.6,347.6,65.4,346.6,57.4,338.7"/>
	<path class="st0" d="M99.7,323.4c-5.4,5.8-5.1,14.8,0.9,20l11.1,9.6l9.9-11.1c5.4-6,4.7-15-1.4-20c-0.2-0.2-0.4-0.3-0.7-0.5
		c3,3.9,2.8,9.6-0.7,13.5l-7.7,8.5l-8.6-7.3c-4-3.4-4.7-8.9-2.3-13.3C100.1,323,99.9,323.2,99.7,323.4"/>
	<polygon class="st0" points="177.5,316.8 187.6,290.4 197.8,316.8 207.8,291.2 212.6,291.2 197.8,328.4 187.6,302.2 177.5,328.4 
		162.7,291.2 167.5,291.2 	"/>
	<path class="st0" d="M234.3,315.9c0,6.7-5.2,11.8-11.9,11.8c-6.6,0-11.9-5.1-11.9-11.8c0-6.7,5.2-11.8,11.9-11.8
		C229,304.1,234.3,309.2,234.3,315.9 M214.8,315.9c0,4.2,3.4,7.7,7.6,7.7c4.2,0,7.6-3.6,7.6-7.7c0-4.2-3.4-7.7-7.6-7.7
		C218.2,308.2,214.8,311.7,214.8,315.9"/>
	<path class="st0" d="M243.2,308.4h0.1c1-2.6,3.2-4.3,6.1-4.3c1.2,0,2.5,0.4,3.5,1.1l-1.9,3.9c-0.8-0.7-1.6-0.9-2.6-0.9
		c-4.6,0-5.2,4.3-5.2,7.9V327h-4.3v-22.2h4.3V308.4z"/>
	<polygon class="st0" points="260.4,313.1 268.8,304.8 274.4,304.8 264.9,314 275.4,327 269.8,327 261.9,316.9 260.4,318.3 
		260.4,327 256.1,327 256.1,285.8 260.4,285.8 	"/>
	<path class="st0" d="M282.6,308.5L282.6,308.5c1.9-2.7,4.5-4.4,7.8-4.4c6.4,0,10.4,5.6,10.4,11.6c0,6.4-3.8,12-10.6,12
		c-3.1,0-5.8-1.7-7.5-4.2h-0.1v16.2h-4.3v-34.9h4.3V308.5z M296.6,315.9c0-4.3-2.6-8-7.2-8c-4.4,0-7,3.8-7,8c0,4.2,2.5,8.1,7,8.1
		C294.1,323.9,296.6,320.2,296.6,315.9"/>
	<rect x="305.8" y="285.8" class="st0" width="4.3" height="41.2"/>
	<path class="st0" d="M337.4,327h-4.3v-3.5H333c-1.7,2.5-4.4,4.2-7.5,4.2c-6.8,0-10.6-5.6-10.6-12c0-6.1,4-11.6,10.5-11.6
		c3.3,0,5.9,1.7,7.7,4.4h0.1v-3.7h4.3V327z M333.4,315.9c0-4.3-2.6-8-7.2-8c-4.4,0-7,3.8-7,8c0,4.2,2.5,8.1,7,8.1
		C330.8,323.9,333.4,320.2,333.4,315.9"/>
	<path class="st0" d="M359.9,311.1c-1.7-1.9-3.8-3-6.4-3c-4.2,0-7.4,3.7-7.4,7.8c0,4.6,3.2,7.9,7.7,7.9c2.5,0,4.5-1.1,6.1-2.9v5.5
		c-1.9,1-3.9,1.5-6.1,1.5c-6.6,0-11.9-5-11.9-11.7c0-6.9,5.3-12,12.1-12c2,0,4.2,0.5,5.9,1.5V311.1z"/>
	<path class="st0" d="M367.7,316.6c0,3.8,2.6,7.4,6.7,7.4c3.3,0,5-1.7,6.6-4.3l3.6,2c-2.1,3.8-6,6.1-10.3,6.1
		c-6.8,0-10.9-5.1-10.9-11.7c0-6.8,3.7-12,10.8-12c7.1,0,10.4,5.2,10.4,11.8v0.7H367.7z M380.3,313.4c-0.5-3.3-2.7-5.6-6.1-5.6
		c-3.3,0-5.8,2.4-6.3,5.6H380.3z"/>
	<path class="st0" d="M420.7,298c-1.3-2.2-3-3.4-5.7-3.4c-2.9,0-6,1.9-6,5.1c0,2.8,2.8,4.3,5,5.1l2.6,1c5.1,2,8.9,4.8,8.9,10.8
		c0,6.5-5,11.2-11.4,11.2c-5.8,0-10.3-4.3-11.1-10l4.5-0.9c0,3.9,3.1,6.8,6.9,6.8c3.8,0,6.6-3.2,6.6-7c0-3.8-3.1-5.5-6.2-6.8l-2.5-1
		c-4.1-1.8-7.8-4.1-7.8-9.1c0-5.8,5.1-9.3,10.5-9.3c4,0,7.3,1.9,9.2,5.4L420.7,298z"/>
	<path class="st0" d="M451.5,327h-4.3v-3.5h-0.1c-1.7,2.5-4.4,4.2-7.5,4.2c-6.8,0-10.6-5.6-10.6-12c0-6.1,4-11.6,10.5-11.6
		c3.3,0,5.9,1.7,7.7,4.4h0.1v-3.7h4.3V327z M447.5,315.9c0-4.3-2.6-8-7.2-8c-4.4,0-7,3.8-7,8c0,4.2,2.5,8.1,7,8.1
		C444.9,323.9,447.5,320.2,447.5,315.9"/>
	<path class="st0" d="M468.4,290.1c-0.9-0.4-1.9-0.9-2.8-0.9c-3,0-3,3.8-3,6v9.5h5.9v4h-5.9V327h-4.3v-18.2h-1.9v-4h1.9v-10.8
		c0-4.8,1.7-8.7,7.2-8.7c1,0,2,0.2,3,0.6V290.1z"/>
	<path class="st0" d="M474.1,316.6c0,3.8,2.6,7.4,6.7,7.4c3.3,0,5-1.7,6.6-4.3l3.6,2c-2.1,3.8-6,6.1-10.3,6.1
		c-6.8,0-10.9-5.1-10.9-11.7c0-6.8,3.7-12,10.8-12c7.1,0,10.4,5.2,10.4,11.8v0.7H474.1z M486.8,313.4c-0.5-3.3-2.7-5.6-6.1-5.6
		c-3.3,0-5.8,2.4-6.3,5.6H486.8z"/>
	<polygon class="st0" points="500.2,327 495.9,327 495.9,308.8 493.6,308.8 493.6,304.8 495.9,304.8 495.9,296.3 500.2,296.3 
		500.2,304.8 504.3,304.8 504.3,308.8 500.2,308.8 	"/>
	<polygon class="st0" points="505.7,304.8 510.7,304.8 518.2,318.9 525.1,304.8 529.9,304.8 512,339.7 507.1,339.7 515.8,323.2 	"/>
	<path class="st0" d="M187.5,374.9c-2.7,3.2-6.5,5.6-10.7,5.6c-6,0-11-4.4-11-10.5c0-4.6,2.8-7,6.3-9.5l2.2-1.6
		c-2-2.1-3.9-4.8-3.9-7.8c0-4.9,3.6-7.8,8.3-7.8c4.4,0,8.3,2.8,8.3,7.5c0,4-3.5,6.7-6.5,8.9l7.4,9l4.2-4.8l2.8,2.9l-4.4,5.1l6.4,7.9
		h-5.5L187.5,374.9z M176.4,362.3c-2.5,1.7-6.5,4.1-6.5,7.5c0,3.4,3.2,6.6,6.6,6.6c3.3,0,6-2.5,8.2-4.7l-7.9-9.7L176.4,362.3z
		 M178.4,356.1c1.8-1.4,4.3-2.9,4.3-5.5c0-2.5-1.8-3.9-4.2-3.9c-2.1,0-4,1.5-4,3.8c0,1.8,1.1,3.1,2.1,4.5l1.2,1.5L178.4,356.1z"/>
	<path class="st0" d="M220.1,379.7h-4.5v-35.8h5.1c11,0,14.4,3.8,14.4,10.4c0,7.5-5.7,10.4-12.5,10.4h-2.6V379.7z M220.1,360.7h1.4
		c4.6,0,9.5-0.9,9.5-6.6c0-5.6-5.3-6.3-9.7-6.3h-1.2V360.7z"/>
	<path class="st0" d="M243.1,361.1h0.1c1-2.6,3.2-4.3,6.1-4.3c1.2,0,2.5,0.4,3.5,1.1l-1.9,3.9c-0.8-0.7-1.6-0.9-2.6-0.9
		c-4.6,0-5.2,4.3-5.2,7.9v10.9h-4.3v-22.2h4.3V361.1z"/>
	<path class="st0" d="M257.7,369.3c0,3.8,2.6,7.4,6.7,7.4c3.3,0,5-1.7,6.6-4.3l3.6,2c-2.1,3.8-6,6.1-10.3,6.1
		c-6.8,0-10.9-5.1-10.9-11.7c0-6.8,3.7-12,10.8-12c7.1,0,10.4,5.2,10.4,11.8v0.7H257.7z M270.4,366.1c-0.5-3.3-2.7-5.6-6.1-5.6
		c-3.3,0-5.8,2.4-6.3,5.6H270.4z"/>
	<polygon class="st0" points="286.2,371.4 292.6,357.5 297.4,357.5 286.2,380.5 275.1,357.5 279.9,357.5 	"/>
	<path class="st0" d="M302.3,369.3c0,3.8,2.6,7.4,6.7,7.4c3.3,0,5-1.7,6.6-4.3l3.6,2c-2.1,3.8-6,6.1-10.3,6.1
		c-6.8,0-10.9-5.1-10.9-11.7c0-6.8,3.7-12,10.8-12c7.1,0,10.4,5.2,10.4,11.8v0.7H302.3z M314.9,366.1c-0.5-3.3-2.7-5.6-6.1-5.6
		c-3.3,0-5.8,2.4-6.3,5.6H314.9z"/>
	<path class="st0" d="M328,360.5L328,360.5c1.4-2.4,4.1-3.7,6.8-3.7c6.3,0,7.9,4.2,7.9,9.6v13.2h-4.3V367c0-3.8-0.5-6.4-4.9-6.4
		c-5.5,0-5.5,4.8-5.5,8.9v10.2h-4.3v-22.2h4.3V360.5z"/>
	<polygon class="st0" points="353.4,379.7 349.2,379.7 349.2,361.5 346.8,361.5 346.8,357.5 349.2,357.5 349.2,349 353.4,349 
		353.4,357.5 357.6,357.5 357.6,361.5 353.4,361.5 	"/>
	<path class="st0" d="M366.2,347.3c0,1.6-1.3,2.9-2.9,2.9c-1.6,0-2.9-1.3-2.9-2.9c0-1.7,1.3-3,2.9-3
		C364.9,344.4,366.2,345.7,366.2,347.3 M365.4,379.7h-4.3v-22.2h4.3V379.7z"/>
	<path class="st0" d="M393.9,368.7c0,6.7-5.2,11.8-11.9,11.8s-11.9-5.1-11.9-11.8c0-6.7,5.2-11.8,11.9-11.8S393.9,362,393.9,368.7
		 M374.5,368.7c0,4.2,3.4,7.7,7.6,7.7c4.2,0,7.6-3.6,7.6-7.7c0-4.2-3.4-7.7-7.6-7.7C377.8,360.9,374.5,364.4,374.5,368.7"/>
	<path class="st0" d="M402.7,360.5L402.7,360.5c1.4-2.4,4.1-3.7,6.8-3.7c6.3,0,7.9,4.2,7.9,9.6v13.2h-4.3V367c0-3.8-0.5-6.4-4.9-6.4
		c-5.5,0-5.5,4.8-5.5,8.9v10.2h-4.3v-22.2h4.3V360.5z"/>
	<path class="st0" d="M455.7,350.7c-1.3-2.2-3-3.4-5.7-3.4c-2.8,0-6,1.9-6,5.1c0,2.8,2.8,4.3,5,5.1l2.6,1c5.1,2,8.9,4.8,8.9,10.8
		c0,6.5-5,11.2-11.4,11.2c-5.8,0-10.3-4.3-11.1-10l4.5-0.9c0,3.9,3.1,6.8,6.9,6.8c3.8,0,6.6-3.2,6.6-7c0-3.8-3.1-5.5-6.2-6.8l-2.5-1
		c-4.1-1.8-7.8-4.1-7.8-9.1c0-5.8,5.1-9.3,10.5-9.3c4,0,7.3,1.9,9.2,5.4L455.7,350.7z"/>
	<path class="st0" d="M468.2,369.3c0,3.8,2.6,7.4,6.7,7.4c3.3,0,5-1.7,6.6-4.3l3.6,2c-2.1,3.8-6,6.1-10.3,6.1
		c-6.8,0-10.9-5.1-10.9-11.7c0-6.8,3.7-12,10.8-12c7.1,0,10.4,5.2,10.4,11.8v0.7H468.2z M480.9,366.1c-0.5-3.3-2.7-5.6-6.1-5.6
		c-3.3,0-5.8,2.4-6.3,5.6H480.9z"/>
	<path class="st0" d="M494.1,361.1h0.1c1-2.6,3.2-4.3,6.1-4.3c1.2,0,2.5,0.4,3.5,1.1l-1.9,3.9c-0.8-0.7-1.6-0.9-2.6-0.9
		c-4.6,0-5.2,4.3-5.2,7.9v10.9h-4.3v-22.2h4.3V361.1z"/>
	<polygon class="st0" points="516.3,371.4 522.7,357.5 527.5,357.5 516.3,380.5 505.2,357.5 510,357.5 	"/>
	<path class="st0" d="M536.2,347.3c0,1.6-1.3,2.9-2.9,2.9c-1.6,0-2.9-1.3-2.9-2.9c0-1.7,1.3-3,2.9-3
		C534.8,344.4,536.2,345.7,536.2,347.3 M535.3,379.7h-4.3v-22.2h4.3V379.7z"/>
	<path class="st0" d="M558.3,363.8c-1.7-1.9-3.8-3-6.4-3c-4.2,0-7.4,3.7-7.4,7.8c0,4.6,3.2,7.9,7.7,7.9c2.5,0,4.5-1.1,6.1-2.9v5.5
		c-1.9,1-3.9,1.5-6.1,1.5c-6.6,0-11.9-5-11.9-11.7c0-6.9,5.3-12,12.1-12c2,0,4.2,0.5,5.9,1.5V363.8z"/>
	<path class="st0" d="M566,369.3c0,3.8,2.6,7.4,6.7,7.4c3.3,0,5-1.7,6.6-4.3l3.6,2c-2.1,3.8-6,6.1-10.3,6.1
		c-6.8,0-10.9-5.1-10.9-11.7c0-6.8,3.7-12,10.8-12c7.1,0,10.4,5.2,10.4,11.8v0.7H566z M578.7,366.1c-0.5-3.3-2.7-5.6-6.1-5.6
		c-3.3,0-5.8,2.4-6.3,5.6H578.7z"/>
	<path class="st0" d="M596.2,362.6c-0.5-1.1-1.6-1.9-2.8-1.9c-1.2,0-2.3,1-2.3,2.2c0,1.9,2.6,2.8,5.2,4c2.6,1.2,5.1,2.8,5.1,6.3
		c0,4.2-3.5,7.4-7.6,7.4c-3.2,0-6.5-1.8-7.7-5l3.7-1.7c0.9,1.7,2,2.9,4,2.9c1.8,0,3.4-1.2,3.4-3.1c0-1.2-0.6-1.8-1.6-2.4l-4.2-2.2
		c-2.5-1.3-4.3-2.6-4.3-5.6c0-3.6,2.9-6.5,6.6-6.5c2.7,0,4.9,1.5,6.1,3.9L596.2,362.6z"/>
	<path class="st0" d="M618.3,356.7c1.4,1.4,2.2,3.3,2.2,5.3c0,2.1-0.8,4-2.2,5.4c-1.5,1.5-3.4,2.2-5.4,2.2c-2,0-3.9-0.8-5.4-2.3
		c-1.4-1.4-2.2-3.3-2.2-5.3c0-2,0.8-3.9,2.3-5.4c1.4-1.4,3.2-2.2,5.3-2.2C614.9,354.5,616.8,355.2,618.3,356.7 M608.3,357.4
		c-1.3,1.3-2,2.9-2,4.6s0.7,3.3,1.9,4.5c1.2,1.2,2.9,1.9,4.5,1.9c1.8,0,3.4-0.6,4.7-1.9c1.2-1.2,1.9-2.8,1.9-4.5
		c0-1.8-0.6-3.4-1.8-4.6c-1.3-1.3-2.8-1.9-4.6-1.9C611.1,355.6,609.5,356.2,608.3,357.4 M613,357.6c2.4,0,3.6,0.8,3.6,2.3
		c0,1.2-0.7,2.1-1.9,2.4l1.9,3.8h-2l-1.7-3.5h-1.3v3.5h-1.8v-8.5H613z M611.6,361.5h1.2c1.3,0,2-0.4,2-1.3c0-1-0.7-1.4-2.1-1.4h-1.1
		V361.5z"/>
</g>
</svg>
